<?xml version="1.0" encoding="utf-8"?>
<!-- Generator: Adobe Illustrator 25.2.0, SVG Export Plug-In . SVG Version: 6.00 Build 0)  -->
<svg version="1.1" id="Layer_1" xmlns="http://www.w3.org/2000/svg" xmlns:xlink="http://www.w3.org/1999/xlink" x="0px" y="0px"
	 viewBox="0 0 238 66.31" style="enable-background:new 0 0 238 66.31;" xml:space="preserve">
<style type="text/css">
	.st0{fill:#B1B3B5;}
	.st1{fill:#FFFFFF;}
</style>
<g>
	<g>
		<rect x="15.11" y="6.66" class="st0" width="2.56" height="35.54"/>
		<path class="st0" d="M37.82,19.75c-2.24-1.17-4.56-1.76-6.91-1.76h0c-4.21,0.18-7.52,1.91-9.87,5.19
			c-1.32,2.25-1.99,4.55-1.99,6.84c0,4.24,1.63,7.61,4.88,10.03c2.25,1.43,4.48,2.15,6.62,2.15h0.15c1.96,0,2.81-0.05,3.16-0.23
			c1.03-0.05,2.3-0.53,3.87-1.45c0.9-0.34,2.04-1.32,3.49-3.01l0.03-0.04c1.43-2.19,2.15-4.5,2.15-6.85v-0.89
			c0-1.31-0.23-2.63-0.69-3.93C41.8,23.17,40.17,21.15,37.82,19.75z M40.85,30.02c0,1.5-0.34,3.04-1.01,4.6
			c-0.33,0.81-1.11,1.81-2.33,2.95c-2.05,1.37-4.09,2.07-6.06,2.07h-0.37c-0.79,0-1.89-0.19-3.29-0.57
			c-1.59-0.64-2.89-1.5-3.82-2.54c-1.52-1.85-2.28-3.98-2.29-6.32c0.13-1.74,0.37-3.05,0.71-3.89c0.74-1.79,2.01-3.25,3.74-4.32
			c1.82-0.91,3.56-1.37,5.15-1.37c1.4,0.1,2.63,0.34,3.66,0.72c2.1,0.78,3.72,2.19,4.82,4.16C40.48,27.14,40.85,28.66,40.85,30.02z"
			/>
		<path class="st0" d="M66.66,22.39l-0.42-0.58l-0.06-0.06c-2.72-2.49-5.72-3.76-8.92-3.76c-3.4,0-6.4,1.14-8.91,3.38l-0.04,0.04
			c-1.11,1.27-1.86,2.3-2.29,3.14l-0.02,0.05c-0.81,2.18-1.22,4.03-1.22,5.5c0,1.93,0.49,3.96,1.46,6.06
			c0.61,1.23,1.75,2.53,3.39,3.86l0.05,0.04c2.46,1.47,4.74,2.22,6.76,2.22h0.3c1.54,0,3.01-0.21,4.39-0.62
			c2.5-0.94,4.35-2.19,5.53-3.73v0.73c0,1.4-0.22,2.71-0.64,3.86c-0.85,2.12-2.2,3.65-4.06,4.55c-1,0.58-2.47,0.99-4.39,1.2
			l-0.83-0.14l-0.07-0.01c-1.64,0-3.32-0.48-4.97-1.41l-1.43-1.15c-1.28-1.43-2.01-2.7-2.18-3.78l-0.06-0.36h-2.72l0.07,0.49
			c0.27,1.8,1.26,3.65,2.93,5.5l0.04,0.04c2.61,2.19,5.35,3.3,8.16,3.3h0.22c2.15,0,2.82-0.11,3.11-0.24
			c1.43-0.24,3.04-0.94,4.82-2.08c2.97-2.32,4.48-5.36,4.48-9.04v-21.4h-2.49V22.39z M52.34,21.76c0.88-0.51,2.47-0.89,4.72-1.13
			c1.01,0,2.33,0.3,3.93,0.87l0.05,0.01c0.36,0.08,1.08,0.41,2.5,1.47c2.02,1.96,3.05,4.38,3.05,7.19c0,1.17-0.22,2.32-0.64,3.42
			l-0.02,0.08c-0.2,1.11-1.13,2.45-2.75,3.98c-2.06,1.32-4,1.99-5.76,1.99h-0.79l-0.65-0.07l-0.05,0c-1.12,0-2.45-0.43-3.96-1.28
			l-0.1-0.04c-0.35-0.1-1.04-0.51-2.39-1.95c-1.32-1.77-1.98-3.71-1.98-5.75v-0.67C47.5,26.28,49.08,23.63,52.34,21.76z"/>
		<rect x="71.8" y="17.92" class="st0" width="2.52" height="24.28"/>
		<rect x="71.8" y="6.66" class="st0" width="2.51" height="4.43"/>
		<path class="st0" d="M131.17,37.71c-1.67-1.55-2.7-2.81-3.06-3.76c-0.65-1.62-0.99-3.1-1.01-4.38v-9.1h6.48V20.4h3.71v-2.56
			h-10.19V6.66h-2.56v11.26h-16.16c-2.26,0-4.02,0.48-5.24,1.43l-0.04,0.03c-1.61,1.59-2.43,3.42-2.43,5.44
			c0,2.17,0.9,4.03,2.68,5.53l0.04,0.03c1.21,0.79,2.49,1.19,3.8,1.19c0.08,0,0.16,0,0.23,0h9.4l1.25,0.28
			c1.7,0.81,2.53,2.03,2.54,3.74l-0.14,1.13c-0.6,2.02-2.12,3.01-4.64,3.01H99.2v-0.07h-8.9c-2.65,0-4.59-0.29-5.77-0.85
			c-2.08-1-3.61-2.65-4.54-4.89c-0.38-1.09-0.62-2.37-0.72-3.8c0.1-1.16,0.24-2.13,0.42-2.84c0.91-2.62,2.22-4.36,3.88-5.19
			l0.08-0.05c1.17-0.93,3.38-1.39,6.58-1.39h8.98v-2.64h-8.46c-3.01,0-4.96,0.2-5.95,0.62c-2.58,0.77-4.57,2.18-5.94,4.19
			l-0.97,1.56l-0.03,0.06c-0.86,2.14-1.3,4.19-1.3,6.11l0.46,2.78c0.43,1.67,1.05,3.09,1.86,4.25c2.44,3.07,5.58,4.62,9.33,4.62
			h1.94h9.04h16.99l1.65-0.08l0.08-0.01c1.34-0.34,2.46-0.93,3.31-1.74l0.03-0.03c1.04-1.22,1.65-2.5,1.81-3.79l0-1.61l-0.16-1.06
			c-0.24-1.1-0.91-2.17-2-3.21c-1.04-0.9-2.27-1.43-3.65-1.59l-0.02,0l-10.33,0c-0.6-0.04-1.32-0.36-2.14-0.95
			c-1.04-0.96-1.55-2.02-1.55-3.24c0-0.45,0.09-0.99,0.28-1.57c0.65-1.91,2.12-2.83,4.51-2.83h16.53v8.35c0,3.66,1.09,6.78,3.25,9.3
			c2.65,2.7,5.9,4.07,9.67,4.07h0.5v-2.56h-0.65C135.3,39.63,133.23,38.99,131.17,37.71z"/>
		<path class="st0" d="M161.2,29.79c0,3.22-1.14,5.83-3.4,7.77c-2.03,1.33-4.02,2-5.92,2h-0.59c-0.97,0-2.15-0.24-3.49-0.72
			c-2.11-0.83-3.64-2.11-4.54-3.82l-0.03-0.05c-0.84-1.16-1.26-3.4-1.26-6.67V17.92h-2.63v11.88c0,0.67,0.1,1.62,0.31,2.92
			c0.58,2.54,1.52,4.41,2.79,5.55c2.19,2.6,5.4,3.92,9.53,3.92h0.45c0.96,0,1.98-0.18,3.03-0.54c2.43-0.79,4.36-2.05,5.77-3.77v4.32
			h2.49V17.84h-2.49V29.79z"/>
		<path class="st0" d="M187.79,22.37c-2.43-2.91-5.73-4.38-9.84-4.38h-0.38c-1.17,0.01-2.52,0.3-4.01,0.84
			c-2.96,1.07-5.17,3.1-6.56,6.02l-0.02,0.04c-0.71,2.03-1.06,3.75-1.06,5.12c0,1.13,0.26,2.62,0.77,4.46
			c1.05,2.8,2.77,4.86,5.09,6.09c1.81,1.08,4.08,1.62,6.76,1.62h0.45c1.11,0,2.54-0.31,4.26-0.93c1.83-0.82,3.35-1.96,4.53-3.4v4.33
			h2.49V6.66h-2.49V22.37z M185.57,23.88c1.42,1.89,2.15,3.98,2.15,6.21c0,1.74-0.46,3.48-1.34,5.12c-1.97,2.93-4.65,4.35-8.2,4.35
			c-1.31,0-2.59-0.22-3.77-0.63c-3.89-1.76-5.78-4.56-5.78-8.54v-0.47v-0.35c0-0.79,0.14-1.67,0.43-2.65
			c0.3-1.22,1.09-2.48,2.32-3.73c1.95-1.71,4.23-2.57,6.79-2.57c1.44,0,2.93,0.34,4.44,1.01C183.58,22.05,184.58,22.82,185.57,23.88
			z"/>
		<rect x="192.93" y="6.66" class="st0" width="2.5" height="4.43"/>
		<rect x="192.93" y="17.92" class="st0" width="2.52" height="24.28"/>
		<path class="st0" d="M222.2,25.79c-0.91-2.61-2.55-4.64-4.89-6.04c-2.24-1.17-4.56-1.76-6.91-1.76c0,0,0,0,0,0
			c-4.21,0.18-7.52,1.91-9.87,5.19c-1.32,2.25-1.99,4.55-1.99,6.84c0,4.24,1.63,7.61,4.88,10.03c2.25,1.43,4.48,2.15,6.62,2.15h0.15
			c1.96,0,2.81-0.05,3.16-0.23c1.03-0.05,2.3-0.53,3.87-1.45c0.9-0.34,2.04-1.32,3.49-3.01l0.03-0.04c1.43-2.19,2.15-4.5,2.15-6.85
			v-0.89C222.89,28.41,222.66,27.09,222.2,25.79z M220.33,30.02c0,1.5-0.34,3.04-1.01,4.6c-0.33,0.81-1.12,1.81-2.33,2.95
			c-2.05,1.37-4.09,2.07-6.06,2.07h-0.37c-0.79,0-1.89-0.19-3.29-0.57c-1.59-0.64-2.89-1.5-3.82-2.54
			c-1.52-1.85-2.28-3.98-2.29-6.32c0.13-1.74,0.37-3.05,0.71-3.89c0.74-1.79,2.01-3.25,3.74-4.32c1.82-0.91,3.56-1.37,5.15-1.37
			c1.4,0.1,2.63,0.34,3.66,0.72c2.1,0.78,3.72,2.19,4.82,4.16C219.97,27.14,220.33,28.66,220.33,30.02z"/>
	</g>
	<rect x="15.11" y="6.66" class="st1" width="2.56" height="35.54"/>
	<path class="st1" d="M37.82,19.75c-2.24-1.17-4.56-1.76-6.91-1.76h0c-4.21,0.18-7.52,1.91-9.87,5.19
		c-1.32,2.25-1.99,4.55-1.99,6.84c0,4.24,1.63,7.61,4.88,10.03c2.25,1.43,4.48,2.15,6.62,2.15h0.15c1.96,0,2.81-0.05,3.16-0.23
		c1.03-0.05,2.3-0.53,3.87-1.45c0.9-0.34,2.04-1.32,3.49-3.01l0.03-0.04c1.43-2.19,2.15-4.5,2.15-6.85v-0.89
		c0-1.31-0.23-2.63-0.69-3.93C41.8,23.17,40.17,21.15,37.82,19.75z M39.84,34.62c-0.33,0.81-1.11,1.81-2.33,2.95
		c-2.05,1.37-4.09,2.07-6.06,2.07h-0.37c-0.79,0-1.89-0.19-3.29-0.57c-1.59-0.64-2.89-1.5-3.82-2.54c-1.52-1.85-2.28-3.98-2.29-6.32
		c0.13-1.74,0.37-3.05,0.71-3.89c0.74-1.79,2.01-3.25,3.74-4.32c1.82-0.91,3.56-1.37,5.15-1.37c1.4,0.1,2.63,0.34,3.66,0.72
		c2.1,0.78,3.72,2.19,4.82,4.16c0.72,1.64,1.08,3.16,1.08,4.51C40.85,31.51,40.51,33.06,39.84,34.62z"/>
	<path class="st1" d="M66.66,22.39l-0.42-0.58l-0.06-0.06c-2.72-2.49-5.72-3.76-8.92-3.76c-3.4,0-6.4,1.14-8.91,3.38l-0.04,0.04
		c-1.11,1.27-1.86,2.3-2.29,3.14l-0.02,0.05c-0.81,2.18-1.22,4.03-1.22,5.5c0,1.93,0.49,3.96,1.46,6.06
		c0.61,1.23,1.75,2.53,3.39,3.86l0.05,0.04c2.46,1.47,4.74,2.22,6.76,2.22h0.3c1.54,0,3.01-0.21,4.39-0.62
		c2.5-0.94,4.35-2.19,5.53-3.73v0.73c0,1.4-0.22,2.71-0.64,3.86c-0.85,2.12-2.2,3.65-4.06,4.55c-1,0.58-2.47,0.99-4.39,1.2
		l-0.83-0.14l-0.07-0.01c-1.64,0-3.32-0.48-4.97-1.41l-1.43-1.15c-1.28-1.43-2.01-2.7-2.18-3.78l-0.06-0.36h-2.72l0.07,0.49
		c0.27,1.8,1.26,3.65,2.93,5.5l0.04,0.04c2.61,2.19,5.35,3.3,8.16,3.3h0.22c2.15,0,2.82-0.11,3.11-0.24
		c1.43-0.24,3.04-0.94,4.82-2.08c2.97-2.32,4.48-5.36,4.48-9.04v-21.4h-2.49V22.39z M65.94,33.58l-0.02,0.08
		c-0.2,1.11-1.13,2.45-2.75,3.98c-2.06,1.32-4,1.99-5.76,1.99h-0.79l-0.65-0.07l-0.05,0c-1.12,0-2.45-0.43-3.96-1.28l-0.1-0.04
		c-0.35-0.1-1.04-0.51-2.39-1.95c-1.32-1.77-1.98-3.71-1.98-5.75v-0.67c0-3.59,1.58-6.24,4.85-8.11c0.88-0.51,2.47-0.89,4.72-1.13
		c1.01,0,2.33,0.3,3.93,0.87l0.05,0.01c0.36,0.08,1.08,0.41,2.5,1.47c2.02,1.96,3.05,4.38,3.05,7.19
		C66.58,31.34,66.37,32.49,65.94,33.58z"/>
	<rect x="71.8" y="17.92" class="st1" width="2.52" height="24.28"/>
	<rect x="71.8" y="6.66" class="st1" width="2.51" height="4.43"/>
	<path class="st1" d="M84.79,18.61c-2.58,0.77-4.57,2.18-5.94,4.19l-0.97,1.56l-0.03,0.06c-0.86,2.14-1.3,4.19-1.3,6.11l0.46,2.78
		c0.43,1.67,1.05,3.09,1.86,4.25c2.44,3.07,5.58,4.62,9.33,4.62h1.94h9.04h10.57v-2.49H99.2v-0.07h-8.9c-2.65,0-4.59-0.29-5.77-0.85
		c-2.08-1-3.61-2.65-4.54-4.89c-0.38-1.09-0.62-2.37-0.72-3.8c0.1-1.16,0.24-2.13,0.42-2.84c0.91-2.62,2.22-4.36,3.88-5.19
		l0.08-0.05c1.17-0.93,3.38-1.39,6.58-1.39h8.98v-2.64h-8.46C87.73,17.99,85.78,18.19,84.79,18.61z"/>
	<g>
		<g>
			<g>
				<g>
					<path class="st1" d="M72.59,56.88H71.8v-5.61h0.79V56.88z"/>
					<path class="st1" d="M73.97,51.27h0.71l2.74,4.34l-0.09,0.1v-4.44h0.78v5.61H77.4l-2.74-4.27l0.09-0.1v4.37h-0.78V51.27z"/>
					<path class="st1" d="M79.51,51.27h0.71l2.74,4.34l-0.09,0.1v-4.44h0.78v5.61h-0.72L80.2,52.6l0.09-0.1v4.37h-0.78V51.27z"/>
					<path class="st1" d="M85.86,56.68c-0.3-0.17-0.53-0.41-0.69-0.73c-0.16-0.31-0.25-0.67-0.25-1.09v-1.59
						c0-0.41,0.08-0.77,0.25-1.09c0.16-0.31,0.39-0.55,0.69-0.73c0.3-0.17,0.64-0.26,1.03-0.26c0.39,0,0.74,0.09,1.03,0.26
						c0.3,0.17,0.53,0.41,0.69,0.73c0.16,0.31,0.25,0.67,0.25,1.09v1.59c0,0.41-0.08,0.77-0.25,1.09c-0.16,0.31-0.39,0.55-0.69,0.73
						c-0.3,0.17-0.64,0.26-1.03,0.26C86.51,56.93,86.16,56.85,85.86,56.68z M87.51,56c0.18-0.1,0.31-0.25,0.41-0.44
						c0.1-0.19,0.14-0.41,0.14-0.67v-1.64c0-0.25-0.05-0.47-0.14-0.67c-0.1-0.19-0.23-0.34-0.41-0.44c-0.18-0.1-0.38-0.16-0.61-0.16
						c-0.23,0-0.43,0.05-0.61,0.16c-0.18,0.1-0.31,0.25-0.41,0.44c-0.1,0.19-0.14,0.41-0.14,0.67v1.64c0,0.25,0.05,0.47,0.14,0.67
						c0.1,0.19,0.23,0.34,0.41,0.44c0.18,0.1,0.38,0.16,0.61,0.16C87.13,56.16,87.33,56.11,87.51,56z"/>
					<path class="st1" d="M89.56,51.27h0.86l1.35,4.4l1.35-4.4h0.86l-1.83,5.61h-0.75L89.56,51.27z"/>
					<path class="st1" d="M95.96,51.27h0.67l2.07,5.61h-0.85l-1.56-4.53l-1.56,4.53h-0.85L95.96,51.27z M94.85,54.9h2.95v0.75h-2.95
						V54.9z"/>
					<path class="st1" d="M98.62,51.27h3.96v0.75h-3.96V51.27z M100.21,51.72H101v5.15h-0.79V51.72z"/>
					<path class="st1" d="M104.14,56.88h-0.79v-5.61h0.79V56.88z"/>
					<path class="st1" d="M106.35,56.68c-0.3-0.17-0.53-0.41-0.69-0.73c-0.16-0.31-0.25-0.67-0.25-1.09v-1.59
						c0-0.41,0.08-0.77,0.25-1.09c0.16-0.31,0.39-0.55,0.69-0.73c0.3-0.17,0.64-0.26,1.03-0.26c0.39,0,0.74,0.09,1.03,0.26
						c0.3,0.17,0.53,0.41,0.69,0.73c0.16,0.31,0.25,0.67,0.25,1.09v1.59c0,0.41-0.08,0.77-0.25,1.09c-0.16,0.31-0.39,0.55-0.69,0.73
						c-0.3,0.17-0.64,0.26-1.03,0.26C107,56.93,106.65,56.85,106.35,56.68z M108,56c0.18-0.1,0.31-0.25,0.41-0.44
						c0.1-0.19,0.14-0.41,0.14-0.67v-1.64c0-0.25-0.05-0.47-0.14-0.67c-0.1-0.19-0.23-0.34-0.41-0.44c-0.18-0.1-0.38-0.16-0.61-0.16
						c-0.23,0-0.43,0.05-0.61,0.16c-0.18,0.1-0.31,0.25-0.41,0.44c-0.1,0.19-0.14,0.41-0.14,0.67v1.64c0,0.25,0.05,0.47,0.14,0.67
						c0.1,0.19,0.23,0.34,0.41,0.44c0.18,0.1,0.38,0.16,0.61,0.16C107.62,56.16,107.82,56.11,108,56z"/>
					<path class="st1" d="M110.56,51.27h0.71l2.74,4.34l-0.09,0.1v-4.44h0.78v5.61h-0.72l-2.74-4.27l0.09-0.1v4.37h-0.78V51.27z"/>
					<path class="st1" d="M127.49,56.88h-0.79v-5.61h0.79V56.88z"/>
					<path class="st1" d="M128.41,51.27h3.96v0.75h-3.96V51.27z M130,51.72h0.79v5.15H130V51.72z"/>
					<path class="st1" d="M136.03,56.86c-0.24-0.05-0.47-0.13-0.68-0.23c-0.21-0.1-0.41-0.23-0.59-0.39l0.49-0.6
						c0.21,0.18,0.45,0.32,0.71,0.42c0.26,0.09,0.54,0.14,0.84,0.14c0.41,0,0.72-0.08,0.95-0.23c0.22-0.15,0.34-0.36,0.34-0.64v0
						c0-0.2-0.05-0.35-0.15-0.46c-0.1-0.11-0.23-0.2-0.39-0.25c-0.16-0.06-0.37-0.11-0.62-0.15c-0.01,0-0.02,0-0.03,0
						c-0.01,0-0.02,0-0.02,0l-0.06-0.01c-0.38-0.06-0.68-0.14-0.92-0.22c-0.23-0.08-0.44-0.23-0.6-0.44s-0.25-0.52-0.25-0.92v0
						c0-0.35,0.08-0.64,0.23-0.89c0.16-0.25,0.38-0.43,0.68-0.56c0.3-0.13,0.66-0.19,1.08-0.19c0.2,0,0.4,0.02,0.59,0.07
						c0.19,0.04,0.39,0.11,0.57,0.19c0.19,0.09,0.38,0.19,0.56,0.33l-0.45,0.63c-0.21-0.16-0.43-0.27-0.64-0.35
						c-0.21-0.08-0.42-0.12-0.64-0.12c-0.38,0-0.68,0.08-0.89,0.23c-0.21,0.15-0.32,0.37-0.32,0.65v0c0,0.19,0.05,0.34,0.16,0.46
						c0.11,0.11,0.25,0.19,0.41,0.24c0.16,0.05,0.39,0.11,0.68,0.16c0.01,0,0.02,0,0.03,0.01c0.01,0,0.02,0,0.03,0.01
						c0.01,0,0.03,0.01,0.04,0.01c0.02,0,0.03,0.01,0.04,0.01c0.34,0.07,0.62,0.15,0.85,0.25c0.23,0.1,0.42,0.25,0.57,0.46
						c0.15,0.21,0.23,0.5,0.23,0.87v0.01c0,0.34-0.08,0.64-0.24,0.88c-0.16,0.24-0.4,0.43-0.7,0.56c-0.31,0.13-0.68,0.19-1.11,0.19
						C136.53,56.93,136.27,56.91,136.03,56.86z"/>
					<path class="st1" d="M139.9,51.27h0.79v5.61h-0.79V51.27z M140.28,51.27h3.22v0.75h-3.22V51.27z M140.28,53.72h2.8v0.75h-2.8
						V53.72z M140.28,56.13h3.22v0.75h-3.22V56.13z"/>
					<path class="st1" d="M144.62,51.26h0.79v5.61h-0.79V51.26z M144.97,53.75h1.91c0.15,0,0.28-0.04,0.4-0.11
						c0.12-0.07,0.2-0.17,0.27-0.31s0.09-0.28,0.09-0.46c0-0.17-0.03-0.32-0.09-0.46c-0.06-0.13-0.15-0.23-0.27-0.31
						c-0.12-0.07-0.25-0.11-0.4-0.11h-1.91v-0.75h1.88c0.32,0,0.61,0.07,0.85,0.2c0.25,0.13,0.44,0.32,0.57,0.57
						c0.13,0.25,0.2,0.53,0.2,0.85c0,0.32-0.07,0.61-0.2,0.85c-0.14,0.25-0.33,0.44-0.57,0.57c-0.25,0.13-0.53,0.2-0.85,0.2h-1.88
						V53.75z M146.49,54.33l0.78-0.18l1.44,2.72h-0.93L146.49,54.33z"/>
					<path class="st1" d="M149.16,51.27h0.86l1.35,4.4l1.35-4.4h0.86l-1.83,5.61h-0.75L149.16,51.27z"/>
					<path class="st1" d="M155.2,56.88h-0.79v-5.61h0.79V56.88z"/>
					<path class="st1" d="M157.4,56.68c-0.29-0.17-0.52-0.42-0.69-0.73c-0.16-0.32-0.24-0.68-0.24-1.1V53.3
						c0-0.42,0.08-0.78,0.24-1.1c0.16-0.32,0.39-0.56,0.69-0.74c0.29-0.17,0.64-0.26,1.02-0.26c0.32,0,0.62,0.07,0.89,0.21
						c0.27,0.14,0.5,0.33,0.68,0.58c0.18,0.25,0.3,0.54,0.37,0.88h-0.81c-0.05-0.17-0.13-0.33-0.25-0.47
						c-0.11-0.14-0.25-0.24-0.4-0.32c-0.15-0.07-0.31-0.11-0.48-0.11c-0.23,0-0.43,0.06-0.6,0.17c-0.17,0.11-0.31,0.27-0.4,0.47
						c-0.09,0.2-0.14,0.43-0.14,0.7v1.54c0,0.26,0.05,0.49,0.14,0.69c0.1,0.2,0.23,0.36,0.4,0.46c0.17,0.11,0.37,0.16,0.6,0.16
						c0.17,0,0.33-0.03,0.48-0.1s0.29-0.17,0.4-0.31c0.11-0.14,0.2-0.3,0.25-0.49h0.81c-0.06,0.33-0.19,0.62-0.37,0.88
						c-0.18,0.25-0.41,0.45-0.68,0.58c-0.27,0.14-0.56,0.21-0.88,0.21C158.04,56.93,157.7,56.85,157.4,56.68z"/>
					<path class="st1" d="M161.4,51.27h0.79v5.61h-0.79V51.27z M161.78,51.27h3.22v0.75h-3.22V51.27z M161.78,53.72h2.8v0.75h-2.8
						V53.72z M161.78,56.13h3.22v0.75h-3.22V56.13z"/>
					<path class="st1" d="M167.04,56.86c-0.24-0.05-0.47-0.13-0.68-0.23c-0.21-0.1-0.41-0.23-0.59-0.39l0.49-0.6
						c0.21,0.18,0.45,0.32,0.71,0.42c0.26,0.09,0.54,0.14,0.84,0.14c0.41,0,0.72-0.08,0.95-0.23c0.22-0.15,0.34-0.36,0.34-0.64v0
						c0-0.2-0.05-0.35-0.15-0.46c-0.1-0.11-0.23-0.2-0.39-0.25c-0.16-0.06-0.37-0.11-0.62-0.15c-0.01,0-0.02,0-0.03,0
						c-0.01,0-0.02,0-0.02,0l-0.06-0.01c-0.38-0.06-0.68-0.14-0.92-0.22c-0.23-0.08-0.44-0.23-0.6-0.44
						c-0.17-0.21-0.25-0.52-0.25-0.92v0c0-0.35,0.08-0.64,0.23-0.89c0.16-0.25,0.38-0.43,0.68-0.56c0.3-0.13,0.66-0.19,1.08-0.19
						c0.2,0,0.4,0.02,0.59,0.07c0.19,0.04,0.39,0.11,0.57,0.19c0.19,0.09,0.38,0.19,0.56,0.33l-0.45,0.63
						c-0.21-0.16-0.43-0.27-0.64-0.35c-0.21-0.08-0.42-0.12-0.64-0.12c-0.38,0-0.68,0.08-0.89,0.23c-0.21,0.15-0.32,0.37-0.32,0.65
						v0c0,0.19,0.05,0.34,0.16,0.46c0.11,0.11,0.25,0.19,0.41,0.24c0.16,0.05,0.39,0.11,0.68,0.16c0.01,0,0.02,0,0.03,0.01
						c0.01,0,0.02,0,0.03,0.01c0.01,0,0.03,0.01,0.04,0.01c0.02,0,0.03,0.01,0.04,0.01c0.34,0.07,0.62,0.15,0.85,0.25
						c0.23,0.1,0.42,0.25,0.57,0.46c0.15,0.21,0.23,0.5,0.23,0.87v0.01c0,0.34-0.08,0.64-0.24,0.88c-0.16,0.24-0.4,0.43-0.7,0.56
						c-0.31,0.13-0.68,0.19-1.11,0.19C167.54,56.93,167.28,56.91,167.04,56.86z"/>
					<path class="st1" d="M182.52,56.86c-0.24-0.05-0.47-0.13-0.68-0.23c-0.21-0.1-0.41-0.23-0.59-0.39l0.49-0.6
						c0.21,0.18,0.45,0.32,0.71,0.42c0.26,0.09,0.54,0.14,0.84,0.14c0.41,0,0.72-0.08,0.95-0.23c0.22-0.15,0.34-0.36,0.34-0.64v0
						c0-0.2-0.05-0.35-0.15-0.46c-0.1-0.11-0.23-0.2-0.39-0.25c-0.16-0.06-0.37-0.11-0.62-0.15c-0.01,0-0.02,0-0.03,0
						c-0.01,0-0.02,0-0.02,0l-0.06-0.01c-0.38-0.06-0.68-0.14-0.92-0.22c-0.23-0.08-0.44-0.23-0.6-0.44s-0.25-0.52-0.25-0.92v0
						c0-0.35,0.08-0.64,0.23-0.89c0.16-0.25,0.38-0.43,0.68-0.56c0.3-0.13,0.66-0.19,1.08-0.19c0.2,0,0.4,0.02,0.59,0.07
						c0.19,0.04,0.39,0.11,0.57,0.19c0.19,0.09,0.38,0.19,0.56,0.33l-0.45,0.63c-0.21-0.16-0.43-0.27-0.64-0.35
						c-0.21-0.08-0.42-0.12-0.64-0.12c-0.38,0-0.68,0.08-0.89,0.23c-0.21,0.15-0.32,0.37-0.32,0.65v0c0,0.19,0.05,0.34,0.16,0.46
						c0.11,0.11,0.25,0.19,0.41,0.24c0.16,0.05,0.39,0.11,0.68,0.16c0.01,0,0.02,0,0.03,0.01c0.01,0,0.02,0,0.03,0.01
						c0.01,0,0.03,0.01,0.04,0.01c0.02,0,0.03,0.01,0.04,0.01c0.34,0.07,0.62,0.15,0.85,0.25c0.23,0.1,0.42,0.25,0.57,0.46
						c0.15,0.21,0.23,0.5,0.23,0.87v0.01c0,0.34-0.08,0.64-0.24,0.88c-0.16,0.24-0.4,0.43-0.7,0.56c-0.31,0.13-0.68,0.19-1.11,0.19
						C183.02,56.93,182.76,56.91,182.52,56.86z"/>
					<path class="st1" d="M187.13,56.68c-0.3-0.17-0.53-0.41-0.69-0.73c-0.16-0.31-0.25-0.67-0.25-1.09v-1.59
						c0-0.41,0.08-0.77,0.25-1.09c0.16-0.31,0.39-0.55,0.69-0.73c0.3-0.17,0.64-0.26,1.03-0.26c0.39,0,0.74,0.09,1.03,0.26
						c0.3,0.17,0.53,0.41,0.69,0.73c0.16,0.31,0.25,0.67,0.25,1.09v1.59c0,0.41-0.08,0.77-0.25,1.09c-0.16,0.31-0.39,0.55-0.69,0.73
						c-0.3,0.17-0.64,0.26-1.03,0.26C187.78,56.93,187.43,56.85,187.13,56.68z M188.78,56c0.18-0.1,0.31-0.25,0.41-0.44
						c0.1-0.19,0.14-0.41,0.14-0.67v-1.64c0-0.25-0.05-0.47-0.14-0.67c-0.1-0.19-0.23-0.34-0.41-0.44c-0.18-0.1-0.38-0.16-0.61-0.16
						c-0.23,0-0.43,0.05-0.61,0.16c-0.18,0.1-0.31,0.25-0.41,0.44c-0.1,0.19-0.14,0.41-0.14,0.67v1.64c0,0.25,0.05,0.47,0.14,0.67
						c0.1,0.19,0.23,0.34,0.41,0.44c0.18,0.1,0.38,0.16,0.61,0.16C188.4,56.16,188.6,56.11,188.78,56z"/>
					<path class="st1" d="M191.34,51.27h0.79v5.61h-0.79V51.27z M191.73,56.13h3.21v0.75h-3.21V56.13z"/>
					<path class="st1" d="M196.54,56.69c-0.29-0.16-0.52-0.4-0.67-0.71c-0.15-0.31-0.23-0.69-0.23-1.13v-3.58h0.79v3.61
						c0,0.41,0.1,0.73,0.31,0.95c0.21,0.22,0.5,0.34,0.87,0.34c0.38,0,0.67-0.11,0.88-0.34c0.21-0.22,0.31-0.54,0.31-0.95v-3.61
						h0.79v3.58c0,0.44-0.08,0.82-0.23,1.13c-0.15,0.31-0.38,0.55-0.67,0.71c-0.3,0.16-0.65,0.25-1.07,0.25
						C197.19,56.93,196.83,56.85,196.54,56.69z"/>
					<path class="st1" d="M200.12,51.27h3.96v0.75h-3.96V51.27z M201.7,51.72h0.79v5.15h-0.79V51.72z"/>
					<path class="st1" d="M205.64,56.88h-0.79v-5.61h0.79V56.88z"/>
					<path class="st1" d="M207.85,56.68c-0.3-0.17-0.53-0.41-0.69-0.73c-0.16-0.31-0.25-0.67-0.25-1.09v-1.59
						c0-0.41,0.08-0.77,0.25-1.09c0.16-0.31,0.39-0.55,0.69-0.73c0.3-0.17,0.64-0.26,1.03-0.26c0.39,0,0.74,0.09,1.03,0.26
						c0.3,0.17,0.53,0.41,0.69,0.73c0.16,0.31,0.25,0.67,0.25,1.09v1.59c0,0.41-0.08,0.77-0.25,1.09c-0.16,0.31-0.39,0.55-0.69,0.73
						c-0.3,0.17-0.64,0.26-1.03,0.26C208.49,56.93,208.15,56.85,207.85,56.68z M209.49,56c0.18-0.1,0.31-0.25,0.41-0.44
						c0.1-0.19,0.14-0.41,0.14-0.67v-1.64c0-0.25-0.05-0.47-0.14-0.67c-0.1-0.19-0.23-0.34-0.41-0.44c-0.18-0.1-0.38-0.16-0.61-0.16
						s-0.43,0.05-0.61,0.16c-0.18,0.1-0.31,0.25-0.41,0.44c-0.1,0.19-0.14,0.41-0.14,0.67v1.64c0,0.25,0.05,0.47,0.14,0.67
						c0.1,0.19,0.23,0.34,0.41,0.44c0.18,0.1,0.38,0.16,0.61,0.16S209.32,56.11,209.49,56z"/>
					<path class="st1" d="M212.05,51.27h0.71l2.74,4.34l-0.09,0.1v-4.44h0.78v5.61h-0.72l-2.74-4.27l0.09-0.1v4.37h-0.78V51.27z"/>
					<path class="st1" d="M218.5,56.86c-0.24-0.05-0.47-0.13-0.68-0.23c-0.21-0.1-0.41-0.23-0.59-0.39l0.49-0.6
						c0.21,0.18,0.45,0.32,0.71,0.42c0.26,0.09,0.54,0.14,0.84,0.14c0.41,0,0.72-0.08,0.95-0.23c0.22-0.15,0.34-0.36,0.34-0.64v0
						c0-0.2-0.05-0.35-0.15-0.46c-0.1-0.11-0.23-0.2-0.39-0.25c-0.16-0.06-0.37-0.11-0.62-0.15c-0.01,0-0.02,0-0.03,0
						c-0.01,0-0.02,0-0.02,0l-0.06-0.01c-0.38-0.06-0.68-0.14-0.92-0.22c-0.23-0.08-0.44-0.23-0.6-0.44s-0.25-0.52-0.25-0.92v0
						c0-0.35,0.08-0.64,0.23-0.89c0.16-0.25,0.38-0.43,0.68-0.56c0.3-0.13,0.66-0.19,1.08-0.19c0.2,0,0.4,0.02,0.59,0.07
						c0.19,0.04,0.39,0.11,0.57,0.19c0.19,0.09,0.38,0.19,0.56,0.33l-0.45,0.63c-0.21-0.16-0.43-0.27-0.64-0.35
						c-0.21-0.08-0.42-0.12-0.64-0.12c-0.38,0-0.68,0.08-0.89,0.23c-0.21,0.15-0.32,0.37-0.32,0.65v0c0,0.19,0.05,0.34,0.16,0.46
						c0.11,0.11,0.25,0.19,0.41,0.24c0.16,0.05,0.39,0.11,0.68,0.16c0.01,0,0.02,0,0.03,0.01c0.01,0,0.02,0,0.03,0.01
						c0.01,0,0.03,0.01,0.04,0.01c0.02,0,0.03,0.01,0.04,0.01c0.34,0.07,0.62,0.15,0.85,0.25c0.23,0.1,0.42,0.25,0.57,0.46
						c0.15,0.21,0.23,0.5,0.23,0.87v0.01c0,0.34-0.08,0.64-0.24,0.88c-0.16,0.24-0.4,0.43-0.7,0.56c-0.31,0.13-0.68,0.19-1.11,0.19
						C219,56.93,218.74,56.91,218.5,56.86z"/>
				</g>
			</g>
		</g>
		<g>
			<rect x="175.43" y="47.77" class="st0" width="0.88" height="11.88"/>
		</g>
		<g>
			<rect x="119.95" y="47.77" class="st0" width="0.88" height="11.88"/>
		</g>
	</g>
</g>
</svg>
