<svg id="Layer_1" data-name="Layer 1" xmlns="http://www.w3.org/2000/svg" viewBox="0 0 238 66.31"><defs><style>.cls-1{fill:#0098d7;}.cls-2{fill:none;}.cls-3{fill:#313183;}</style></defs><rect class="cls-1" x="15.11" y="6.66" width="2.56" height="35.54"/><path class="cls-1" d="M37.82,19.75A14.8,14.8,0,0,0,30.92,18h0A12.16,12.16,0,0,0,21,23.18a13.45,13.45,0,0,0-2,6.84,11.87,11.87,0,0,0,4.89,10,12.47,12.47,0,0,0,6.62,2.15h.15A10.09,10.09,0,0,0,33.87,42a9,9,0,0,0,3.86-1.45,10.15,10.15,0,0,0,3.49-3l0,0a12.41,12.41,0,0,0,2.16-6.85v-.89a11.77,11.77,0,0,0-.7-3.93A11,11,0,0,0,37.82,19.75Zm3,10.27a11.67,11.67,0,0,1-1,4.6,9.82,9.82,0,0,1-2.33,3,10.94,10.94,0,0,1-6.06,2.06h-.37a13.49,13.49,0,0,1-3.29-.57A10.23,10.23,0,0,1,24,36.52a9.8,9.8,0,0,1-2.28-6.32,13.79,13.79,0,0,1,.71-3.89A9.15,9.15,0,0,1,26.14,22a11.89,11.89,0,0,1,5.15-1.37,13.41,13.41,0,0,1,3.66.72,9,9,0,0,1,4.82,4.16A11.57,11.57,0,0,1,40.85,30Z"/><path class="cls-1" d="M66.66,22.39l-.42-.58-.06-.06a12.92,12.92,0,0,0-17.83-.38l0,0A16.38,16.38,0,0,0,46,24.54v.05a16.51,16.51,0,0,0-1.22,5.5,14.52,14.52,0,0,0,1.46,6.07A12.45,12.45,0,0,0,49.63,40l0,0a13.53,13.53,0,0,0,6.76,2.22h.3a15.27,15.27,0,0,0,4.39-.62,12.15,12.15,0,0,0,5.53-3.73v.73A11.32,11.32,0,0,1,66,42.51,8.27,8.27,0,0,1,62,47.06a11.68,11.68,0,0,1-4.39,1.2l-.83-.14h-.07a10,10,0,0,1-5-1.41l-1.43-1.15a8.07,8.07,0,0,1-2.18-3.77L48,41.42H45.31l.08.49a10.83,10.83,0,0,0,2.93,5.5l0,0a12.63,12.63,0,0,0,8.16,3.3h.22a9.63,9.63,0,0,0,3.11-.24,13.26,13.26,0,0,0,4.81-2.08,11,11,0,0,0,4.48-9V18H66.66Zm-14.32-.63a13.12,13.12,0,0,1,4.72-1.14,12.75,12.75,0,0,1,3.93.87l0,0A7.76,7.76,0,0,1,63.53,23a9.65,9.65,0,0,1,3,7.19,9.26,9.26,0,0,1-.64,3.41l0,.08c-.2,1.11-1.13,2.45-2.75,4a10.9,10.9,0,0,1-5.76,2h-.79L56,39.56h0a8.34,8.34,0,0,1-4-1.28l-.1,0a6.79,6.79,0,0,1-2.39-2,9.47,9.47,0,0,1-2-5.75v-.67A8.77,8.77,0,0,1,52.34,21.76Z"/><rect class="cls-1" x="71.8" y="17.92" width="2.52" height="24.28"/><rect class="cls-1" x="71.8" y="6.66" width="2.51" height="4.43"/><path class="cls-1" d="M131.17,37.71A11.75,11.75,0,0,1,128.1,34a12.51,12.51,0,0,1-1-4.38V20.48h6.49V20.4h3.7V17.84H127.09V6.66h-2.56V17.92H108.37a8.52,8.52,0,0,0-5.25,1.42l0,0a7.43,7.43,0,0,0-2.44,5.43,7,7,0,0,0,2.68,5.53l0,0a6.83,6.83,0,0,0,3.79,1.19h9.63l1.25.28a3.92,3.92,0,0,1,2.54,3.73l-.14,1.13c-.6,2-2.12,3-4.64,3H99.2v-.08H90.29a14.19,14.19,0,0,1-5.76-.85A9.18,9.18,0,0,1,80,33.9a14.92,14.92,0,0,1-.72-3.8,18.57,18.57,0,0,1,.43-2.84c.91-2.62,2.21-4.37,3.87-5.19l.08-.05c1.17-.93,3.38-1.4,6.58-1.4h9V18H90.74c-3,0-5,.2-5.95.62a10.6,10.6,0,0,0-5.94,4.19l-1,1.56,0,.07a16.43,16.43,0,0,0-1.3,6.11L77,33.32a13.28,13.28,0,0,0,1.87,4.25,11.47,11.47,0,0,0,9.33,4.63h28l1.65-.08h.08a7.35,7.35,0,0,0,3.31-1.74l0,0a7.19,7.19,0,0,0,1.81-3.79V34.93l-.16-1.06a6.43,6.43,0,0,0-2-3.21,6.63,6.63,0,0,0-3.65-1.58H106.91a4.46,4.46,0,0,1-2.14-.95,4.25,4.25,0,0,1-1.55-3.24,5.5,5.5,0,0,1,.27-1.57c.65-1.91,2.12-2.83,4.51-2.83h16.53v8.35a13.79,13.79,0,0,0,3.25,9.29,13.07,13.07,0,0,0,9.67,4.08h.5V39.63h-.65A11.62,11.62,0,0,1,131.17,37.71Z"/><path class="cls-1" d="M161.2,29.79a9.76,9.76,0,0,1-3.4,7.77,10.87,10.87,0,0,1-5.92,2h-.59a10.8,10.8,0,0,1-3.49-.71A8.34,8.34,0,0,1,143.26,35l0-.05c-.84-1.16-1.26-3.41-1.26-6.67V17.92h-2.64V29.79a19.77,19.77,0,0,0,.31,2.93,10.47,10.47,0,0,0,2.79,5.55c2.19,2.61,5.4,3.93,9.53,3.93h.44a9.35,9.35,0,0,0,3-.55,12,12,0,0,0,5.77-3.77V42.2h2.49V17.84H161.2Z"/><path class="cls-1" d="M187.79,22.37A12.19,12.19,0,0,0,178,18h-.38a12.36,12.36,0,0,0-4,.84,11.44,11.44,0,0,0-6.56,6l0,0A16.47,16.47,0,0,0,165.92,30a17.8,17.8,0,0,0,.77,4.46,11,11,0,0,0,5.09,6.09,13,13,0,0,0,6.76,1.63H179a13.21,13.21,0,0,0,4.26-.93,12.26,12.26,0,0,0,4.54-3.41V42.2h2.48V6.66h-2.48Zm-2.22,1.51a10.12,10.12,0,0,1,2.14,6.21,10.7,10.7,0,0,1-1.34,5.12,9.24,9.24,0,0,1-8.2,4.35,11.51,11.51,0,0,1-3.77-.63c-3.88-1.76-5.77-4.56-5.77-8.54v-.82a9.45,9.45,0,0,1,.43-2.65,8.32,8.32,0,0,1,2.32-3.72,10,10,0,0,1,6.79-2.58,10.94,10.94,0,0,1,4.44,1A9.3,9.3,0,0,1,185.57,23.88Z"/><rect class="cls-1" x="192.93" y="6.66" width="2.5" height="4.43"/><rect class="cls-1" x="192.93" y="17.92" width="2.52" height="24.28"/><path class="cls-1" d="M222.2,25.79a11.07,11.07,0,0,0-4.89-6A14.87,14.87,0,0,0,210.4,18h0a12.16,12.16,0,0,0-9.87,5.19,13.45,13.45,0,0,0-2,6.84,11.86,11.86,0,0,0,4.88,10A12.47,12.47,0,0,0,210,42.2h.15a10,10,0,0,0,3.16-.23,9,9,0,0,0,3.87-1.45,10.46,10.46,0,0,0,3.49-3l0,0a12.4,12.4,0,0,0,2.15-6.85v-.89A11.75,11.75,0,0,0,222.2,25.79ZM220.33,30a11.67,11.67,0,0,1-1,4.6,9.5,9.5,0,0,1-2.33,3,10.94,10.94,0,0,1-6.05,2.06h-.38a13.43,13.43,0,0,1-3.28-.57,10.19,10.19,0,0,1-3.83-2.54,9.8,9.8,0,0,1-2.28-6.32,13.86,13.86,0,0,1,.71-3.89A9.15,9.15,0,0,1,205.62,22a11.92,11.92,0,0,1,5.15-1.37,13.41,13.41,0,0,1,3.66.72,9,9,0,0,1,4.82,4.16A11.4,11.4,0,0,1,220.33,30Z"/><path class="cls-2" d="M35,21.34a13.41,13.41,0,0,0-3.66-.72A11.89,11.89,0,0,0,26.14,22a9.15,9.15,0,0,0-3.74,4.32,13.79,13.79,0,0,0-.71,3.89A9.8,9.8,0,0,0,24,36.52a10.23,10.23,0,0,0,3.82,2.54,13.49,13.49,0,0,0,3.29.57h.37a10.94,10.94,0,0,0,6.06-2.06,9.82,9.82,0,0,0,2.33-3,11.67,11.67,0,0,0,1-4.6,11.57,11.57,0,0,0-1.08-4.52A9,9,0,0,0,35,21.34Z"/><path class="cls-2" d="M61,21.51l0,0a12.75,12.75,0,0,0-3.93-.87,13.12,13.12,0,0,0-4.72,1.14,8.77,8.77,0,0,0-4.84,8.11v.67a9.47,9.47,0,0,0,2,5.75,6.79,6.79,0,0,0,2.39,2l.1,0a8.34,8.34,0,0,0,4,1.28h0l.65.07h.79a10.9,10.9,0,0,0,5.76-2c1.62-1.53,2.55-2.87,2.75-4l0-.08a9.26,9.26,0,0,0,.64-3.41,9.65,9.65,0,0,0-3-7.19A7.76,7.76,0,0,0,61,21.51Z"/><rect class="cls-3" x="15.11" y="6.66" width="2.56" height="35.54"/><path class="cls-3" d="M37.82,19.75A14.8,14.8,0,0,0,30.92,18h0A12.16,12.16,0,0,0,21,23.18a13.45,13.45,0,0,0-2,6.84,11.87,11.87,0,0,0,4.89,10,12.47,12.47,0,0,0,6.62,2.15h.15A10.09,10.09,0,0,0,33.87,42a9,9,0,0,0,3.86-1.45,10.15,10.15,0,0,0,3.49-3l0,0a12.41,12.41,0,0,0,2.16-6.85v-.89a11.77,11.77,0,0,0-.7-3.93A11,11,0,0,0,37.82,19.75Zm2,14.87a9.82,9.82,0,0,1-2.33,3,10.94,10.94,0,0,1-6.06,2.06h-.37a13.49,13.49,0,0,1-3.29-.57A10.23,10.23,0,0,1,24,36.52a9.8,9.8,0,0,1-2.28-6.32,13.79,13.79,0,0,1,.71-3.89A9.15,9.15,0,0,1,26.14,22a11.89,11.89,0,0,1,5.15-1.37,13.41,13.41,0,0,1,3.66.72,9,9,0,0,1,4.82,4.16A11.57,11.57,0,0,1,40.85,30,11.67,11.67,0,0,1,39.84,34.62Z"/><path class="cls-3" d="M66.66,22.39l-.42-.58-.06-.06a12.92,12.92,0,0,0-17.83-.38l0,0A16.38,16.38,0,0,0,46,24.54v.05a16.51,16.51,0,0,0-1.22,5.5,14.52,14.52,0,0,0,1.46,6.07A12.45,12.45,0,0,0,49.63,40l0,0a13.53,13.53,0,0,0,6.76,2.22h.3a15.27,15.27,0,0,0,4.39-.62,12.15,12.15,0,0,0,5.53-3.73v.73A11.32,11.32,0,0,1,66,42.51,8.27,8.27,0,0,1,62,47.06a11.68,11.68,0,0,1-4.39,1.2l-.83-.14h-.07a10,10,0,0,1-5-1.41l-1.43-1.15a8.07,8.07,0,0,1-2.18-3.77L48,41.42H45.31l.08.49a10.83,10.83,0,0,0,2.93,5.5l0,0a12.63,12.63,0,0,0,8.16,3.3h.22a9.63,9.63,0,0,0,3.11-.24,13.26,13.26,0,0,0,4.81-2.08,11,11,0,0,0,4.48-9V18H66.66Zm-.72,11.19,0,.08c-.2,1.11-1.13,2.45-2.75,4a10.9,10.9,0,0,1-5.76,2h-.79L56,39.56h0a8.34,8.34,0,0,1-4-1.28l-.1,0a6.79,6.79,0,0,1-2.39-2,9.47,9.47,0,0,1-2-5.75v-.67a8.77,8.77,0,0,1,4.84-8.11,13.12,13.12,0,0,1,4.72-1.14,12.75,12.75,0,0,1,3.93.87l0,0A7.76,7.76,0,0,1,63.53,23a9.65,9.65,0,0,1,3,7.19A9.26,9.26,0,0,1,65.94,33.58Z"/><rect class="cls-3" x="71.8" y="17.92" width="2.52" height="24.28"/><rect class="cls-3" x="71.8" y="6.66" width="2.51" height="4.43"/><path class="cls-3" d="M84.79,18.61a10.6,10.6,0,0,0-5.94,4.19l-1,1.56,0,.07a16.43,16.43,0,0,0-1.3,6.11L77,33.32a13.28,13.28,0,0,0,1.87,4.25,11.47,11.47,0,0,0,9.33,4.63h21.56V39.71H99.2v-.08H90.29a14.19,14.19,0,0,1-5.76-.85A9.18,9.18,0,0,1,80,33.9a14.92,14.92,0,0,1-.72-3.8,18.57,18.57,0,0,1,.43-2.84c.91-2.62,2.21-4.37,3.87-5.19l.08-.05c1.17-.93,3.38-1.4,6.58-1.4h9V18H90.74C87.73,18,85.78,18.19,84.79,18.61Z"/><path class="cls-3" d="M72.59,56.88H71.8V51.27h.79Z"/><path class="cls-3" d="M74,51.27h.72l2.74,4.33-.09.1V51.27h.78v5.6H77.4L74.66,52.6l.09-.1v4.37H74Z"/><path class="cls-3" d="M79.51,51.27h.71L83,55.6l-.1.1V51.27h.78v5.6h-.72L80.2,52.6l.09-.1v4.37h-.78Z"/><path class="cls-3" d="M85.86,56.68a1.8,1.8,0,0,1-.69-.73,2.32,2.32,0,0,1-.24-1.08V53.28a2.34,2.34,0,0,1,.24-1.09,1.86,1.86,0,0,1,.69-.73,2.08,2.08,0,0,1,1-.25,2,2,0,0,1,1,.25,1.8,1.8,0,0,1,.69.73,2.22,2.22,0,0,1,.25,1.09v1.59A2.21,2.21,0,0,1,88.62,56a1.74,1.74,0,0,1-.69.73,2,2,0,0,1-1,.25A2.08,2.08,0,0,1,85.86,56.68ZM87.51,56a1,1,0,0,0,.41-.44,1.44,1.44,0,0,0,.14-.67V53.25a1.44,1.44,0,0,0-.14-.67,1,1,0,0,0-.41-.44A1.23,1.23,0,0,0,86.9,52a1.2,1.2,0,0,0-.61.16,1,1,0,0,0-.41.44,1.44,1.44,0,0,0-.15.67v1.64a1.44,1.44,0,0,0,.15.67,1,1,0,0,0,.41.44,1.11,1.11,0,0,0,.61.16A1.13,1.13,0,0,0,87.51,56Z"/><path class="cls-3" d="M89.56,51.27h.86l1.35,4.39,1.34-4.39H94l-1.83,5.61h-.75Z"/><path class="cls-3" d="M96,51.27h.67l2.07,5.61h-.85L96.3,52.35l-1.56,4.53h-.85ZM94.85,54.9h3v.75h-3Z"/><path class="cls-3" d="M98.62,51.27h4V52h-4Zm1.59.45H101v5.16h-.79Z"/><path class="cls-3" d="M104.14,56.88h-.79V51.27h.79Z"/><path class="cls-3" d="M106.35,56.68a1.8,1.8,0,0,1-.69-.73,2.32,2.32,0,0,1-.24-1.08V53.28a2.34,2.34,0,0,1,.24-1.09,1.86,1.86,0,0,1,.69-.73,2.08,2.08,0,0,1,1-.25,2,2,0,0,1,1,.25,1.8,1.8,0,0,1,.69.73,2.22,2.22,0,0,1,.25,1.09v1.59a2.21,2.21,0,0,1-.25,1.08,1.74,1.74,0,0,1-.69.73,2,2,0,0,1-1,.25A2.08,2.08,0,0,1,106.35,56.68ZM108,56a1,1,0,0,0,.41-.44,1.57,1.57,0,0,0,.14-.67V53.25a1.57,1.57,0,0,0-.14-.67,1,1,0,0,0-.41-.44,1.23,1.23,0,0,0-.61-.16,1.2,1.2,0,0,0-.61.16,1,1,0,0,0-.41.44,1.44,1.44,0,0,0-.15.67v1.64a1.44,1.44,0,0,0,.15.67,1,1,0,0,0,.41.44,1.11,1.11,0,0,0,.61.16A1.13,1.13,0,0,0,108,56Z"/><path class="cls-3" d="M110.56,51.27h.71L114,55.6l-.09.1V51.27h.78v5.6H114l-2.74-4.27.09-.1v4.37h-.77Z"/><path class="cls-3" d="M127.49,56.88h-.79V51.27h.79Z"/><path class="cls-3" d="M128.41,51.27h4V52h-4Zm1.59.45h.79v5.16H130Z"/><path class="cls-3" d="M136,56.86a3,3,0,0,1-.68-.23,3.27,3.27,0,0,1-.58-.39l.48-.6a2.34,2.34,0,0,0,1.55.55,1.65,1.65,0,0,0,.94-.22.72.72,0,0,0,.34-.64h0a.67.67,0,0,0-.15-.46.91.91,0,0,0-.4-.25,3.9,3.9,0,0,0-.62-.16h0l-.06,0a5.65,5.65,0,0,1-.91-.21,1.34,1.34,0,0,1-.61-.45,1.49,1.49,0,0,1-.25-.91h0a1.6,1.6,0,0,1,.24-.89,1.47,1.47,0,0,1,.68-.56,2.63,2.63,0,0,1,1.07-.19,2.88,2.88,0,0,1,.59.06,3.06,3.06,0,0,1,.58.2,3.2,3.2,0,0,1,.56.32l-.45.63a2.26,2.26,0,0,0-.64-.35A1.77,1.77,0,0,0,137,52a1.52,1.52,0,0,0-.89.23.76.76,0,0,0-.32.65h0a.67.67,0,0,0,.16.46,1,1,0,0,0,.41.24,5.55,5.55,0,0,0,.68.17h.15a5.18,5.18,0,0,1,.85.25,1.34,1.34,0,0,1,.57.46,1.47,1.47,0,0,1,.23.87h0a1.59,1.59,0,0,1-.24.88,1.52,1.52,0,0,1-.71.55,2.87,2.87,0,0,1-1.11.19A3.8,3.8,0,0,1,136,56.86Z"/><path class="cls-3" d="M139.9,51.27h.79v5.61h-.79Zm.38,0h3.23V52h-3.23Zm0,2.45h2.8v.74h-2.8Zm0,2.41h3.23v.75h-3.23Z"/><path class="cls-3" d="M144.62,51.26h.79v5.62h-.79Zm.35,2.49h1.91a.77.77,0,0,0,.4-.1.91.91,0,0,0,.27-.31,1.11,1.11,0,0,0,.09-.46,1.06,1.06,0,0,0-.09-.45.72.72,0,0,0-.67-.42H145v-.75h1.88a1.85,1.85,0,0,1,.86.2,1.56,1.56,0,0,1,.57.57,1.81,1.81,0,0,1,.2.85,1.67,1.67,0,0,1-.21.85,1.31,1.31,0,0,1-.57.57,1.67,1.67,0,0,1-.85.2H145Zm1.52.58.79-.18,1.43,2.73h-.93Z"/><path class="cls-3" d="M149.16,51.27H150l1.34,4.39,1.35-4.39h.85l-1.82,5.61H151Z"/><path class="cls-3" d="M155.2,56.88h-.79V51.27h.79Z"/><path class="cls-3" d="M157.4,56.68a1.8,1.8,0,0,1-.68-.74,2.26,2.26,0,0,1-.25-1.1V53.3a2.32,2.32,0,0,1,.25-1.1,1.78,1.78,0,0,1,.68-.73,2,2,0,0,1,1-.26,2,2,0,0,1,.88.2A1.93,1.93,0,0,1,160,52a2.27,2.27,0,0,1,.37.87h-.81a1.26,1.26,0,0,0-.24-.46,1.14,1.14,0,0,0-.41-.32,1,1,0,0,0-.47-.11,1.13,1.13,0,0,0-.61.16,1.16,1.16,0,0,0-.4.47,1.67,1.67,0,0,0-.14.69v1.54a1.68,1.68,0,0,0,.14.7,1.13,1.13,0,0,0,.4.46,1.14,1.14,0,0,0,.61.17,1.2,1.2,0,0,0,.48-.11,1.17,1.17,0,0,0,.4-.31,1.28,1.28,0,0,0,.24-.48h.81a2.27,2.27,0,0,1-.37.87,1.93,1.93,0,0,1-.68.59,1.87,1.87,0,0,1-.88.2A2,2,0,0,1,157.4,56.68Z"/><path class="cls-3" d="M161.4,51.27h.79v5.61h-.79Zm.38,0H165V52h-3.23Zm0,2.45h2.8v.74h-2.8Zm0,2.41H165v.75h-3.23Z"/><path class="cls-3" d="M167,56.86a2.78,2.78,0,0,1-.67-.23,3,3,0,0,1-.59-.39l.49-.6a2.26,2.26,0,0,0,.7.41,2.32,2.32,0,0,0,.84.14,1.71,1.71,0,0,0,.95-.22.74.74,0,0,0,.33-.64h0a.67.67,0,0,0-.15-.46.86.86,0,0,0-.4-.25,3.9,3.9,0,0,0-.62-.16h0l-.06,0a5.65,5.65,0,0,1-.91-.21,1.34,1.34,0,0,1-.61-.45,1.49,1.49,0,0,1-.25-.91h0a1.6,1.6,0,0,1,.24-.89,1.47,1.47,0,0,1,.68-.56,2.66,2.66,0,0,1,1.07-.19,3.05,3.05,0,0,1,.6.06,3.23,3.23,0,0,1,.57.2,2.87,2.87,0,0,1,.56.32l-.45.63a2.26,2.26,0,0,0-.64-.35A1.77,1.77,0,0,0,168,52a1.52,1.52,0,0,0-.89.23.76.76,0,0,0-.32.65h0a.64.64,0,0,0,.17.46.93.93,0,0,0,.41.24,5.11,5.11,0,0,0,.68.17h.14a5.18,5.18,0,0,1,.85.25,1.34,1.34,0,0,1,.57.46,1.47,1.47,0,0,1,.23.87h0a1.59,1.59,0,0,1-.24.88,1.47,1.47,0,0,1-.71.55,2.83,2.83,0,0,1-1.11.19A3.8,3.8,0,0,1,167,56.86Z"/><path class="cls-3" d="M182.52,56.86a3,3,0,0,1-.68-.23,3.76,3.76,0,0,1-.59-.39l.49-.6a2.34,2.34,0,0,0,1.55.55,1.68,1.68,0,0,0,.94-.22.72.72,0,0,0,.34-.64h0a.67.67,0,0,0-.15-.46,1,1,0,0,0-.4-.25,4.21,4.21,0,0,0-.62-.16h-.05l-.06,0a6.08,6.08,0,0,1-.92-.21,1.36,1.36,0,0,1-.6-.45,1.43,1.43,0,0,1-.25-.91h0a1.68,1.68,0,0,1,.23-.89,1.57,1.57,0,0,1,.68-.56,2.71,2.71,0,0,1,1.08-.19,2.88,2.88,0,0,1,.59.06,3.06,3.06,0,0,1,.58.2,3.2,3.2,0,0,1,.56.32l-.45.63a2.26,2.26,0,0,0-.64-.35,1.77,1.77,0,0,0-.64-.12,1.52,1.52,0,0,0-.89.23.76.76,0,0,0-.32.65h0a.63.63,0,0,0,.16.46,1,1,0,0,0,.41.24,5.55,5.55,0,0,0,.68.17h.15a5.18,5.18,0,0,1,.85.25,1.4,1.4,0,0,1,.57.46,1.47,1.47,0,0,1,.23.87h0a1.52,1.52,0,0,1-.25.88,1.45,1.45,0,0,1-.7.55,2.87,2.87,0,0,1-1.11.19A3.8,3.8,0,0,1,182.52,56.86Z"/><path class="cls-3" d="M187.13,56.68a1.8,1.8,0,0,1-.69-.73,2.32,2.32,0,0,1-.24-1.08V53.28a2.34,2.34,0,0,1,.24-1.09,1.86,1.86,0,0,1,.69-.73,2.08,2.08,0,0,1,1-.25,2,2,0,0,1,1,.25,1.89,1.89,0,0,1,.7.73,2.34,2.34,0,0,1,.24,1.09v1.59A2.32,2.32,0,0,1,189.9,56a1.82,1.82,0,0,1-.7.73,2,2,0,0,1-1,.25A2.08,2.08,0,0,1,187.13,56.68Zm1.65-.68a1,1,0,0,0,.41-.44,1.44,1.44,0,0,0,.14-.67V53.25a1.44,1.44,0,0,0-.14-.67,1,1,0,0,0-.41-.44,1.23,1.23,0,0,0-.61-.16,1.2,1.2,0,0,0-.61.16,1,1,0,0,0-.41.44,1.44,1.44,0,0,0-.15.67v1.64a1.44,1.44,0,0,0,.15.67,1,1,0,0,0,.41.44,1.11,1.11,0,0,0,.61.16A1.13,1.13,0,0,0,188.78,56Z"/><path class="cls-3" d="M191.34,51.27h.78v5.61h-.78Zm.39,4.86h3.21v.75h-3.21Z"/><path class="cls-3" d="M196.54,56.69a1.56,1.56,0,0,1-.67-.72,2.41,2.41,0,0,1-.24-1.12V51.27h.79v3.6a1.37,1.37,0,0,0,.31,1,1.3,1.3,0,0,0,1.75,0,1.33,1.33,0,0,0,.31-1v-3.6h.79v3.58a2.54,2.54,0,0,1-.23,1.12,1.58,1.58,0,0,1-.68.72,2.48,2.48,0,0,1-2.13,0Z"/><path class="cls-3" d="M200.12,51.27h4V52h-4Zm1.58.45h.79v5.16h-.79Z"/><path class="cls-3" d="M205.64,56.88h-.79V51.27h.79Z"/><path class="cls-3" d="M207.85,56.68a1.74,1.74,0,0,1-.69-.73,2.21,2.21,0,0,1-.25-1.08V53.28a2.22,2.22,0,0,1,.25-1.09,1.8,1.8,0,0,1,.69-.73,2,2,0,0,1,1-.25,2.08,2.08,0,0,1,1,.25,1.86,1.86,0,0,1,.69.73,2.34,2.34,0,0,1,.24,1.09v1.59a2.32,2.32,0,0,1-.24,1.08,1.8,1.8,0,0,1-.69.73,2.08,2.08,0,0,1-1,.25A2,2,0,0,1,207.85,56.68Zm1.64-.68a1,1,0,0,0,.41-.44,1.44,1.44,0,0,0,.15-.67V53.25a1.44,1.44,0,0,0-.15-.67,1,1,0,0,0-.41-.44,1.2,1.2,0,0,0-.61-.16,1.23,1.23,0,0,0-.61.16,1,1,0,0,0-.41.44,1.57,1.57,0,0,0-.14.67v1.64a1.57,1.57,0,0,0,.14.67,1,1,0,0,0,.41.44,1.13,1.13,0,0,0,.61.16A1.11,1.11,0,0,0,209.49,56Z"/><path class="cls-3" d="M212.05,51.27h.71l2.75,4.33-.1.1V51.27h.78v5.6h-.72l-2.73-4.27.09-.1v4.37h-.78Z"/><path class="cls-3" d="M218.5,56.86a3,3,0,0,1-.68-.23,3.27,3.27,0,0,1-.58-.39l.49-.6a2.15,2.15,0,0,0,.7.41,2.32,2.32,0,0,0,.84.14,1.65,1.65,0,0,0,.94-.22.72.72,0,0,0,.34-.64h0a.67.67,0,0,0-.15-.46.86.86,0,0,0-.4-.25,3.9,3.9,0,0,0-.62-.16h0l-.06,0a5.65,5.65,0,0,1-.91-.21,1.34,1.34,0,0,1-.61-.45,1.49,1.49,0,0,1-.25-.91h0a1.6,1.6,0,0,1,.24-.89,1.47,1.47,0,0,1,.68-.56,2.66,2.66,0,0,1,1.07-.19,3.05,3.05,0,0,1,.6.06,3.23,3.23,0,0,1,.57.2,2.87,2.87,0,0,1,.56.32l-.45.63a2.26,2.26,0,0,0-.64-.35,1.77,1.77,0,0,0-.64-.12,1.52,1.52,0,0,0-.89.23.76.76,0,0,0-.32.65h0a.64.64,0,0,0,.17.46.88.88,0,0,0,.41.24,4.73,4.73,0,0,0,.68.17h.14a5.18,5.18,0,0,1,.85.25,1.34,1.34,0,0,1,.57.46,1.47,1.47,0,0,1,.23.87h0a1.59,1.59,0,0,1-.24.88,1.47,1.47,0,0,1-.71.55,2.83,2.83,0,0,1-1.11.19A3.8,3.8,0,0,1,218.5,56.86Z"/><rect class="cls-1" x="175.43" y="47.77" width="0.88" height="11.88"/><rect class="cls-1" x="119.95" y="47.77" width="0.88" height="11.88"/></svg>