<?xml version="1.0" encoding="utf-8"?>
<!-- Generator: Adobe Illustrator 25.2.0, SVG Export Plug-In . SVG Version: 6.00 Build 0)  -->
<svg version="1.1" xmlns="http://www.w3.org/2000/svg" xmlns:xlink="http://www.w3.org/1999/xlink" x="0px" y="0px"
	 viewBox="0 0 500 500" style="enable-background:new 0 0 500 500;" xml:space="preserve">
<style type="text/css">
	.st0{fill:#D6EDFF;}
	.st1{fill:#3F7EB0;}
	.st2{fill:#4A94CF;}
	.st3{fill:#FFFFFF;}
	.st4{fill:#BAE1FF;}
	.st5{fill:#DE9C73;}
	.st6{fill:#E8B799;}
	.st7{fill:#54472D;}
	.st8{fill:#99D2FF;}
	.st9{fill:none;stroke:#FFFFFF;stroke-miterlimit:10;}
	.st10{fill:none;stroke:#FFFFFF;stroke-width:7;stroke-miterlimit:10;}
	.st11{fill:none;stroke:#FFFFFF;stroke-width:7;stroke-linecap:round;stroke-miterlimit:10;}
	.st12{fill:none;stroke:#FFFFFF;stroke-width:5;stroke-miterlimit:10;}
</style>
<g id="Background">
</g>
<g id="Objects">
	<g>
		<path class="st0" d="M76.24,349.32c-47.18-43.29-2.85-97.92,41.07-113.01c0.79-0.27,1.59-0.54,2.4-0.81
			c65-21.37,72.34-97.06,145.27-105.55c72.49-8.44,65.95,37.02,136,37.02c57.6,0,73.55,56.54,25.4,105.67
			c-49.33,50.33-1.19,140.53-83.73,149.37c-62.25,6.66-70.1-48.17-204.52-62.25C116.02,357.45,89.65,361.62,76.24,349.32z"/>
		<g>
			<rect x="230.56" y="370.53" class="st1" width="44.91" height="30.58"/>
			<path class="st2" d="M105.05,384.25c-8.16,0-14.79-6.63-14.79-14.79v-187.7c0-8.16,6.63-14.79,14.79-14.79h295.92
				c8.16,0,14.79,6.63,14.79,14.79v187.7c0,8.16-6.63,14.79-14.79,14.79H105.05z"/>
			<path class="st0" d="M407.77,181.76v187.71c0,3.75-3.04,6.79-6.79,6.79H105.06c-3.75,0-6.79-3.04-6.79-6.79V181.76
				c0-3.75,3.04-6.79,6.79-6.79h295.92C404.73,174.97,407.77,178.01,407.77,181.76z"/>
			<rect x="253.02" y="206.51" class="st3" width="139.11" height="139.11"/>
			<g>
				<path class="st4" d="M321.93,309.13v36.54h-36.49v-19.19c0-2.8,1.74-5.3,4.37-6.27l16.85-6.24l6.26-1.98L321.93,309.13z"/>
				<path class="st4" d="M359.72,326.48v19.19h-36.5v-36.54l9.06,2.87l6.22,1.97l16.85,6.24
					C357.97,321.18,359.72,323.68,359.72,326.48z"/>
				<rect x="312.92" y="294.6" class="st5" width="19.36" height="19.36"/>
				<path class="st6" d="M301.8,268.94h4.85v11.67h-3.24c-1.05,0-1.96-0.73-2.19-1.76l-1.61-7.17
					C299.29,270.28,300.36,268.94,301.8,268.94z"/>
				<path class="st6" d="M322.57,242.65l-23.02,12.56l6.69,34.01c0.75,3.81,3.76,7.58,7.68,10.58c1.57,1.21,3.52,1.83,5.5,1.83h6.74
					c2.14,0,4.22-0.75,5.87-2.11c3.45-2.85,6.17-6.67,6.89-10.3l7.98-40.59L322.57,242.65z"/>
				<path class="st6" d="M343.35,268.94h-4.85v11.67h3.24c1.05,0,1.96-0.73,2.19-1.76l1.61-7.17
					C345.85,270.28,344.78,268.94,343.35,268.94z"/>
				<path class="st7" d="M299.02,252.51l4.31,21.94l1.88-1.3c0.98-0.68,1.52-1.84,1.4-3.03l-2.5-24.48l-2.51,1.28
					c-1.98,1.01-3.05,3.22-2.62,5.4L299.02,252.51z"/>
				<path class="st7" d="M346.1,252.51l-4.31,21.94l-1.88-1.3c-0.98-0.68-1.52-1.84-1.4-3.03l2.5-24.48l2.51,1.28
					c1.98,1.01,3.05,3.22,2.62,5.4L346.1,252.51z"/>
				<path class="st7" d="M351.36,239.07h-43.06c-3.07,0-5.56,2.49-5.56,5.56v10.6h35.76c7.1,0,12.86-5.76,12.86-12.86V239.07z"/>
				<path class="st7" d="M307.71,256.85c0,3.4-1.54,6.16-3.44,6.16c-1.9,0-3.44-2.76-3.44-6.16s1.54-6.16,3.44-6.16
					C306.17,250.69,307.71,253.45,307.71,256.85z"/>
				<path class="st7" d="M344.36,256.85c0,3.4-1.54,6.16-3.44,6.16s-3.44-2.76-3.44-6.16s1.54-6.16,3.44-6.16
					S344.36,253.45,344.36,256.85z"/>
				<polygon class="st8" points="322.6,309.13 322.6,345.67 316.44,345.67 317.09,341.72 320.95,318.2 319.39,316.08 317.92,314.1 
					318.04,313.97 321.93,309.84 322.18,309.58 				"/>
				<polygon class="st8" points="328.76,345.67 322.6,345.67 322.6,309.13 322.99,309.55 323.22,309.79 327.16,313.97 327.28,314.1 
					325.79,316.12 324.25,318.2 328.11,341.72 				"/>
				<polygon class="st0" points="306.65,313.96 312.92,304.28 323.22,309.12 317.39,319.68 				"/>
				<polygon class="st0" points="338.49,313.96 332.23,304.28 321.93,309.12 327.75,319.68 				"/>
			</g>
			<path class="st8" d="M276.74,287.5h-5.08v38.84h38.2v-5.08h-33.12V287.5z M271.65,225.79v37.54h5.08v-32.46h33.12v-5.08H271.65z
				 M367.12,321.25h-33.09v5.08h38.17V287.5h-5.08V321.25z M334.02,225.79v5.08h33.09v32.46h5.08v-37.54H334.02z"/>
			<path class="st2" d="M298.55,397.11h-91.08c-2.21,0-4,1.79-4,4l0,0c0,2.21,1.79,4,4,4h91.08c2.21,0,4-1.79,4-4l0,0
				C302.55,398.9,300.76,397.11,298.55,397.11z"/>
			<rect x="114.06" y="207.36" class="st3" width="97.69" height="9.4"/>
			<rect x="114.06" y="222.96" class="st3" width="97.69" height="9.4"/>
			<rect x="114.06" y="238.56" class="st3" width="97.69" height="9.4"/>
			<rect x="114.06" y="254.15" class="st3" width="97.69" height="9.4"/>
			<rect x="114.06" y="269.75" class="st3" width="97.69" height="9.4"/>
			<rect x="114.06" y="285.35" class="st3" width="97.69" height="9.4"/>
			<rect x="114.06" y="300.95" class="st3" width="97.69" height="9.4"/>
			<rect x="114.06" y="316.54" class="st3" width="97.69" height="9.4"/>
			<rect x="114.06" y="332.14" class="st3" width="97.69" height="9.4"/>
			<rect x="215.53" y="207.36" class="st3" width="24.69" height="9.4"/>
			<rect x="215.53" y="222.96" class="st3" width="24.69" height="9.4"/>
			<rect x="215.53" y="238.56" class="st3" width="24.69" height="9.4"/>
			<rect x="215.53" y="254.15" class="st3" width="24.69" height="9.4"/>
			<rect x="215.53" y="269.75" class="st3" width="24.69" height="9.4"/>
			<rect x="215.53" y="285.35" class="st3" width="24.69" height="9.4"/>
			<rect x="215.53" y="300.95" class="st3" width="24.69" height="9.4"/>
			<rect x="215.53" y="316.54" class="st3" width="24.69" height="9.4"/>
			<rect x="215.53" y="332.14" class="st3" width="24.69" height="9.4"/>
			<rect x="253.02" y="350.53" class="st2" width="139.11" height="9.23"/>
			<rect x="253.02" y="350.53" class="st3" width="32.42" height="9.23"/>
			<rect x="114.06" y="350.53" class="st3" width="126.44" height="9.23"/>
			<rect x="107.85" y="187.71" class="st2" width="23.73" height="7.22"/>
			<rect x="368.4" y="187.71" class="st2" width="23.73" height="7.22"/>
			<rect x="155.07" y="187.71" class="st2" width="177.21" height="7.22"/>
		</g>
		<g>
			<path class="st8" d="M264.97,187.7c0,34.89-16.15,65.99-41.34,86.2c-16.37,13.13-36.58,21.65-58.66,23.63
				c-2.87,0.27-5.77,0.41-8.7,0.44c-0.38,0.01-0.77,0.01-1.15,0.01h-0.05c-0.39,0-0.8,0-1.19-0.01c-2.9-0.02-5.78-0.17-8.62-0.43
				c-22.12-1.96-42.35-10.49-58.76-23.65c-25.2-20.21-41.33-51.31-41.33-86.19c0-60.9,49.2-110.27,109.9-110.27
				C215.77,77.43,264.97,126.81,264.97,187.7z"/>
			<g>
				<path class="st4" d="M154,233.47v52.37c-2.59-0.02-5.16-0.15-7.69-0.38c-19.76-1.75-37.82-9.34-52.47-21.05v-2.33
					c0-4.62,2.88-8.75,7.21-10.35l27.77-10.29l10.32-3.27L154,233.47z"/>
				<path class="st4" d="M216.29,262.09v2.34c-14.62,11.68-32.66,19.27-52.38,21.03c-2.56,0.24-5.15,0.36-7.77,0.39v-52.37
					l14.93,4.73l10.25,3.25l27.77,10.29C213.42,253.34,216.29,257.47,216.29,262.09z"/>
				<rect x="139.15" y="209.53" class="st5" width="31.92" height="31.92"/>
				<path class="st6" d="M120.83,167.23h8v19.23h-5.35c-1.73,0-3.23-1.2-3.61-2.89l-2.65-11.82
					C116.69,169.43,118.46,167.23,120.83,167.23z"/>
				<path class="st6" d="M155.07,123.89l-37.95,20.71l11.02,56.06c1.23,6.28,6.2,12.49,12.65,17.45c2.59,1.99,5.8,3.01,9.07,3.01
					h11.1c3.53,0,6.95-1.23,9.67-3.48c5.69-4.7,10.18-10.99,11.35-16.98l13.15-66.91L155.07,123.89z"/>
				<path class="st6" d="M189.32,167.23h-8v19.23h5.35c1.73,0,3.23-1.2,3.61-2.89l2.65-11.82
					C193.45,169.43,191.69,167.23,189.32,167.23z"/>
				<path class="st7" d="M116.25,140.15l7.11,36.16l3.1-2.14c1.62-1.12,2.51-3.04,2.31-5l-4.12-40.36l-4.14,2.12
					c-3.27,1.67-5.03,5.3-4.32,8.9L116.25,140.15z"/>
				<path class="st7" d="M193.86,140.15l-7.11,36.16l-3.1-2.14c-1.62-1.12-2.51-3.04-2.31-5l4.12-40.36l4.14,2.12
					c3.27,1.67,5.03,5.3,4.32,8.9L193.86,140.15z"/>
				<path class="st7" d="M202.52,117.99h-70.99c-5.06,0-9.16,4.1-9.16,9.16v17.47h58.94c11.71,0,21.21-9.49,21.21-21.21V117.99z"/>
				<ellipse class="st7" cx="124.89" cy="147.29" rx="5.68" ry="10.15"/>
				<path class="st7" d="M190.99,147.29c0,5.6-2.54,10.15-5.68,10.15c-3.14,0-5.68-4.54-5.68-10.15c0-5.6,2.54-10.15,5.68-10.15
					C188.45,137.15,190.99,141.69,190.99,147.29z"/>
				<path class="st8" d="M155.11,233.47v52.38h-0.05c-0.35,0-0.71,0-1.06-0.01c-2.59-0.02-5.16-0.15-7.69-0.38l6.09-37.04
					l-2.58-3.49l-2.41-3.26l0.22-0.23l6.38-6.8l0.41-0.44L155.11,233.47z"/>
				<path class="st8" d="M163.91,285.45c-2.56,0.24-5.15,0.36-7.77,0.39c-0.34,0.01-0.68,0.01-1.03,0.01v-52.38l0.65,0.68l0.38,0.41
					l6.47,6.89l0.22,0.23l-2.46,3.31l-2.55,3.43L163.91,285.45z"/>
				<polygon class="st0" points="128.83,241.45 139.15,225.49 156.14,233.47 146.53,250.88 				"/>
				<polygon class="st0" points="181.32,241.45 170.99,225.49 154.01,233.47 163.61,250.88 				"/>
			</g>
			<path class="st3" d="M101.77,204.83h-6.12v46.73h45.96v-6.12h-39.85V204.83z M95.65,130.58v45.17h6.12V136.7h39.85v-6.12H95.65z
				 M210.51,245.45H170.7v6.12h45.93v-46.73h-6.12V245.45z M170.7,130.58v6.12h39.82v39.05h6.12v-45.17H170.7z"/>
			<path class="st3" d="M138.13,158.22c0,1.21-0.98,2.18-2.18,2.18c-1.21,0-2.18-0.98-2.18-2.18c0-1.21,0.98-2.18,2.18-2.18
				C137.15,156.04,138.13,157.02,138.13,158.22z"/>
			<path class="st3" d="M157.79,165.05c0,1.21-0.98,2.18-2.18,2.18c-1.21,0-2.18-0.98-2.18-2.18c0-1.21,0.98-2.18,2.18-2.18
				C156.81,162.87,157.79,163.84,157.79,165.05z"/>
			<circle class="st3" cx="131.58" cy="182.26" r="2.18"/>
			<path class="st3" d="M152.15,184.44c0,1.21-0.98,2.18-2.18,2.18c-1.21,0-2.18-0.98-2.18-2.18s0.98-2.18,2.18-2.18
				C151.17,182.26,152.15,183.24,152.15,184.44z"/>
			<circle class="st3" cx="145.05" cy="211.57" r="2.18"/>
			<path class="st3" d="M169.36,211.57c0,1.21-0.98,2.18-2.18,2.18c-1.21,0-2.18-0.98-2.18-2.18c0-1.21,0.98-2.18,2.18-2.18
				C168.39,209.38,169.36,210.36,169.36,211.57z"/>
			<path class="st3" d="M158.32,200.69c0,1.21-0.98,2.18-2.18,2.18c-1.21,0-2.18-0.98-2.18-2.18c0-1.21,0.98-2.18,2.18-2.18
				C157.35,198.51,158.32,199.49,158.32,200.69z"/>
			<polyline class="st9" points="135.94,158.22 155.6,165.05 149.97,184.44 156.14,200.69 145.05,211.57 131.58,182.26 
				135.94,158.22 149.97,184.44 			"/>
			<path class="st3" d="M173.91,158.22c0,1.21,0.98,2.18,2.18,2.18c1.21,0,2.18-0.98,2.18-2.18c0-1.21-0.98-2.18-2.18-2.18
				C174.89,156.04,173.91,157.02,173.91,158.22z"/>
			<path class="st3" d="M178.28,182.26c0,1.21,0.98,2.18,2.18,2.18c1.21,0,2.18-0.98,2.18-2.18c0-1.21-0.98-2.18-2.18-2.18
				C179.25,180.08,178.28,181.05,178.28,182.26z"/>
			<circle class="st3" cx="162.07" cy="184.44" r="2.18"/>
			<polyline class="st9" points="176.09,158.22 180.46,182.26 166.99,211.57 155.9,200.69 162.07,184.44 156.43,165.05 
				176.09,158.22 162.07,184.44 			"/>
		</g>
		<g>
			<path class="st8" d="M434.64,376.25c0,13.22-6.12,25.01-15.67,32.68c-6.2,4.98-13.87,8.21-22.24,8.96
				c-1.09,0.1-2.19,0.15-3.3,0.17c-0.15,0-0.29,0-0.44,0h-0.02c-0.15,0-0.3,0-0.45,0c-1.1-0.01-2.19-0.06-3.27-0.16
				c-8.39-0.74-16.05-3.98-22.27-8.96c-9.55-7.66-15.67-19.45-15.67-32.67c0-23.08,18.65-41.8,41.66-41.8
				C415.99,334.46,434.64,353.17,434.64,376.25z"/>
			<polyline class="st10" points="373.86,373.95 392.98,389 411.74,361.68 			"/>
		</g>
		<g>
			<path class="st8" d="M130.04,332.83c0,10.09-4.67,19.08-11.95,24.92c-4.73,3.8-10.57,6.26-16.96,6.83
				c-0.83,0.08-1.67,0.12-2.52,0.13c-0.11,0-0.22,0-0.33,0h-0.02c-0.11,0-0.23,0-0.34,0c-0.84-0.01-1.67-0.05-2.49-0.12
				c-6.4-0.57-12.24-3.03-16.99-6.84c-7.28-5.84-11.95-14.83-11.95-24.92c0-17.61,14.22-31.88,31.77-31.88
				C115.81,300.95,130.04,315.22,130.04,332.83z"/>
			<path class="st3" d="M98.27,318.4l-13.65,4.47v12.73c0,8.83,7.37,14.04,13.65,15.99c6.28-1.94,13.65-7.16,13.65-15.99v-12.73
				L98.27,318.4z"/>
			<path class="st8" d="M101.08,332.29v-1.68c0-1.54-1.25-2.79-2.79-2.79c-1.54,0-2.79,1.25-2.79,2.79v1.68h-1.24v8.02h8.02v-8.02
				H101.08z M97.06,330.61c0-0.68,0.55-1.23,1.23-1.23c0.68,0,1.23,0.55,1.23,1.23v1.68h-2.46V330.61z"/>
		</g>
		<g>
			<path class="st8" d="M433.79,182.07c0,13.22-6.12,25.01-15.67,32.68c-6.2,4.98-13.87,8.21-22.24,8.96
				c-1.09,0.1-2.19,0.15-3.3,0.17c-0.15,0-0.29,0-0.44,0h-0.02c-0.15,0-0.3,0-0.45,0c-1.1-0.01-2.19-0.06-3.27-0.16
				c-8.39-0.74-16.05-3.98-22.27-8.96c-9.55-7.66-15.67-19.45-15.67-32.67c0-23.08,18.65-41.8,41.66-41.8
				C415.14,140.27,433.79,158.99,433.79,182.07z"/>
			
				<ellipse transform="matrix(0.612 -0.7909 0.7909 0.612 15.7269 381.9594)" class="st10" cx="397.11" cy="174.95" rx="17.19" ry="17.19"/>
			<line class="st11" x1="370.92" y1="202.78" x2="385.43" y2="188.28"/>
		</g>
		<g>
			<path class="st8" d="M219.94,377.69c0,13.22-6.12,25.01-15.67,32.68c-6.2,4.98-13.87,8.21-22.24,8.96
				c-1.09,0.1-2.19,0.15-3.3,0.17c-0.15,0-0.29,0-0.44,0h-0.02c-0.15,0-0.3,0-0.45,0c-1.1-0.01-2.19-0.06-3.27-0.16
				c-8.39-0.74-16.05-3.98-22.27-8.96c-9.55-7.66-15.67-19.45-15.67-32.67c0-23.08,18.65-41.8,41.66-41.8
				C201.28,335.89,219.94,354.61,219.94,377.69z"/>
			<g>
				<rect x="165.46" y="370.78" class="st3" width="25.63" height="25.63"/>
				<path class="st12" d="M178.35,358.97L178.35,358.97c-3.54,0-6.43,2.89-6.43,6.43v9.93c0,3.54,2.89,6.43,6.43,6.43h0
					c3.54,0,6.43-2.89,6.43-6.43v-9.93C184.79,361.87,181.89,358.97,178.35,358.97z"/>
			</g>
			<path class="st8" d="M180.8,381.77c0,1.35-1.1,2.45-2.45,2.45c-1.35,0-2.45-1.1-2.45-2.45c0-1.35,1.1-2.45,2.45-2.45
				C179.71,379.31,180.8,380.41,180.8,381.77z"/>
			<path class="st8" d="M178.28,387.72L178.28,387.72c-0.52,0-0.95-0.43-0.95-0.95v-4.15c0-0.52,0.43-0.95,0.95-0.95l0,0
				c0.52,0,0.95,0.43,0.95,0.95v4.15C179.23,387.29,178.8,387.72,178.28,387.72z"/>
		</g>
	</g>
</g>
<g id="Designed_by_Freepik">
</g>
</svg>
